<svg xmlns="http://www.w3.org/2000/svg" viewBox="0 0 160.05 62.45"><path class="a" d="M129,375.69l20-12.51v-.3l-20-12.51V340.31l29.16,18.89v7.66L129,385.75Z" transform="translate(-128.97 -338.02)"/><path class="a" d="M169.15,338.93h13.57c14.26,0,23.63,7.46,23.63,24.34s-9.37,24.8-23,24.8h-14.2Zm13,40.18c7.64,0,12.84-4.08,12.84-15.84s-5.2-15.39-12.84-15.39h-1.84v31.23Z" transform="translate(-128.97 -338.02)"/><path class="a" d="M209.87,381.88l6.38-7.64a21,21,0,0,0,13.06,5.13c4.72,0,6.9-1.83,6.9-4.24,0-3.53-2.92-4.39-7.57-6.34l-6.4-2.73c-5.45-2.07-10.41-6.24-10.41-13.4,0-8.13,7.33-14.64,18-14.64a23.82,23.82,0,0,1,16.32,6.43l-5.6,7a17.64,17.64,0,0,0-11.32-3.83c-3.67,0-6.15,1.51-6.15,4.39s3.29,4,8,5.8l6,2.55c6.43,2.41,10.5,6.42,10.5,13.36,0,8.17-6.86,15.24-19,15.24A28.34,28.34,0,0,1,209.87,381.88Z" transform="translate(-128.97 -338.02)"/><path class="a" d="M252.82,392.13H289v8.34h-36.2Z" transform="translate(-128.97 -338.02)"/></svg>
