<svg xmlns="http://www.w3.org/2000/svg" viewBox="0 0 404.39 65.23"><polygon class="a" points="0 15.12 20.01 27.63 20.01 27.94 0 40.45 0 50.51 29.16 31.61 29.16 23.96 0 5.06 0 15.12"/><path class="a" d="M53.76,3.68H40.18V52.82h14.2c13.63,0,23-7.89,23-24.8S68,3.68,53.76,3.68Zm-.62,40.18H51.3V12.64h1.84C60.78,12.64,66,16.29,66,28S60.78,43.86,53.14,43.86Z"/><path class="a" d="M100.71,14.51c-10,0-19.46,7.34-19.46,19.58,0,12.44,9.07,19.64,20.74,19.64a28.65,28.65,0,0,0,14.83-4.38l-3.68-6.68a20.64,20.64,0,0,1-9.64,2.6c-6.13,0-10.08-2.44-11.18-7.84h25.54a32.29,32.29,0,0,0,.46-5C118.32,22.29,112.25,14.51,100.71,14.51Zm.37,8.43c4.3,0,6.84,2.42,7.41,7h-16C93.57,25.3,96.73,22.94,101.08,22.94Z"/><path class="a" d="M142.71,33.05c-1.23,3.75-2.22,7.58-3.34,11.51h-.3c-1.12-3.93-2.15-7.76-3.37-11.51l-5.89-17.64H118.67l14.1,37.41H145.5l13.7-37.41H148.6Z"/><path class="a" d="M189.58,25.12l-6-2.55c-4.71-1.76-8-2.84-8-5.8s2.48-4.39,6.15-4.39A17.59,17.59,0,0,1,193,16.22l5.6-7a23.8,23.8,0,0,0-16.32-6.44c-10.68,0-18,6.51-18,14.65,0,7.15,5,11.33,10.42,13.4l6.4,2.73c4.65,2,7.57,2.8,7.57,6.34,0,2.4-2.18,4.23-6.9,4.23A21,21,0,0,1,168.73,39l-6.38,7.64a28.3,28.3,0,0,0,18.71,7.1c12.16,0,19-7.08,19-15.25C200.07,31.55,196,27.54,189.58,25.12Z"/><path class="a" d="M229.34,14.51a16.93,16.93,0,0,0-12.4,5.58h-.28l.65-7.2V0h-11.1V52.82h11.1v-25c2.59-2.53,4.61-3.9,7.57-3.9,4.05,0,5.49,2.21,5.49,7.19V52.82h11.1V29.72C241.47,20.29,237.74,14.51,229.34,14.51Z"/><path class="a" d="M266.44,14.51a35.5,35.5,0,0,0-17.5,5.06l3.95,7.27c4.21-2.12,7.8-3.51,11.41-3.51,5,0,7.54,2.05,7.93,5.39-17.67,1.08-24.6,5.35-24.6,13.73,0,6.29,4.73,11.28,12.3,11.28,4.8,0,9.48-2.28,13.26-5.12h.28l.8,4.21h9.06V31.44C283.33,20,277,14.51,266.44,14.51Zm5.79,27.05c-2.64,2-5.46,3.58-8.8,3.58-3.13,0-5.16-1.17-5.16-3.58,0-3.19,3-5.58,14-6.13Z"/><path class="a" d="M301.18,23.59h-.26l-.87-8.18h-9.13V52.82H302V33.36c3.23-6.71,8-9.12,12.63-9.12a19.39,19.39,0,0,1,6.62,1.1L323.53,16a15.47,15.47,0,0,0-7.18-1.5C310.38,14.51,304.86,17.47,301.18,23.59Z"/><path class="a" d="M345.05,14.51c-10,0-19.47,7.34-19.47,19.58,0,12.44,9.08,19.64,20.74,19.64a28.62,28.62,0,0,0,14.83-4.38l-3.68-6.68a20.6,20.6,0,0,1-9.63,2.6c-6.13,0-10.08-2.44-11.18-7.84h25.53a30.82,30.82,0,0,0,.47-5C362.66,22.29,356.58,14.51,345.05,14.51Zm.37,8.43c4.3,0,6.84,2.42,7.4,7h-16C337.9,25.3,341.06,22.94,345.42,22.94Z"/><rect class="a" x="368.19" y="56.88" width="36.2" height="8.35"/></svg>
